# xmcd
#
# Track frame offsets:
# 150
# 24012
# 37800
# 61937
# 79712
# 97562
# 116725
# 135937
# 165912
# 189662
# 205900
# 223550
# 243037
#
# Disc length: 3633 seconds
#
# Revision: 0
# Processed by: cddbd v1.4PL0 Copyright (c) Steve Scherf et al.
# Submitted via: MacMP3 Pro 5.0 (http://mp3.act2.co.jp/)
#
DISCID=8f0e2f0d
DTITLE=BILLY JOEL - GREATEST HITS SPECIAL EDITION FOR JAPAN ONLY
DYEAR=1900
DGENRE=
TTITLE0=Prelude - Angry Young Man
TTITLE1=Root Beer Rag
TTITLE2=Streetlife Serenader
TTITLE3=Honesty
TTITLE4=James
TTITLE5=All For Leyna
TTITLE6=She's Right On Time
TTITLE7=Until The Night
TTITLE8=Miami 2017
TTITLE9=Vienna
TTITLE10=Leave A Tender Moment Alone
TTITLE11=This Night
TTITLE12=Piano Man (Live)
EXTD=
EXTT0=
EXTT1=
EXTT2=
EXTT3=
EXTT4=
EXTT5=
EXTT6=
EXTT7=
EXTT8=
EXTT9=
EXTT10=
EXTT11=
EXTT12=
PLAYORDER=
